<?xml version="1.0" encoding="UTF-8"?>
<svg width="64" height="64" viewBox="0 0 64 64" fill="none" xmlns="http://www.w3.org/2000/svg">
  <defs>
    <linearGradient id="gradient1" x1="32" y1="16" x2="32" y2="48">
      <stop offset="0%" stop-color="#3b82f6" />
      <stop offset="100%" stop-color="#8b5cf6" />
    </linearGradient>
    <linearGradient id="gradient2" x1="32" y1="16" x2="32" y2="32">
      <stop offset="0%" stop-color="#3b82f6" />
      <stop offset="100%" stop-color="#6366f1" />
    </linearGradient>
    <linearGradient id="gradient3" x1="32" y1="32" x2="32" y2="48">
      <stop offset="0%" stop-color="#6366f1" />
      <stop offset="100%" stop-color="#8b5cf6" />
    </linearGradient>
  </defs>
  
  <path d="M32 16 L20 32 M32 16 L32 32 M32 16 L44 32 M20 32 L14 48 M20 32 L26 48 M32 32 L32 48 M44 32 L38 48 M44 32 L50 48" 
    stroke="url(#gradient1)" 
    stroke-width="2.5" 
    stroke-linecap="round"
  />
  <circle cx="32" cy="16" r="5" fill="url(#gradient2)" />
  <circle cx="20" cy="32" r="4.5" fill="url(#gradient2)" />
  <circle cx="32" cy="32" r="4.5" fill="url(#gradient2)" />
  <circle cx="44" cy="32" r="4.5" fill="url(#gradient2)" />
  <circle cx="14" cy="48" r="4" fill="url(#gradient3)" />
  <circle cx="26" cy="48" r="4" fill="url(#gradient3)" />
  <circle cx="32" cy="48" r="4" fill="url(#gradient3)" />
  <circle cx="38" cy="48" r="4" fill="url(#gradient3)" />
  <circle cx="50" cy="48" r="4" fill="url(#gradient3)" />
</svg>